<?xml version="1.0" encoding="UTF-8"?>
<!DOCTYPE svg PUBLIC "-//W3C//DTD SVG 1.1//EN" "http://www.w3.org/Graphics/SVG/1.1/DTD/svg11.dtd">
<!-- Creator: CorelDRAW 2020 (64-Bit Versión de evaluación) -->
<svg xmlns="http://www.w3.org/2000/svg" xml:space="preserve" width="50px" height="87px" version="1.1" style="shape-rendering:geometricPrecision; text-rendering:geometricPrecision; image-rendering:optimizeQuality; fill-rule:evenodd; clip-rule:evenodd"
viewBox="0 0 10.43 18.18"
 xmlns:xlink="http://www.w3.org/1999/xlink"
 xmlns:xodm="http://www.corel.com/coreldraw/odm/2003">
 <defs>
  <style type="text/css">
   <![CDATA[
    .fil5 {fill:url(#id0)}
    .fil3 {fill:url(#id1)}
    .fil4 {fill:url(#id2)}
    .fil1 {fill:url(#id3)}
    .fil2 {fill:url(#id4)}
    .fil0 {fill:url(#id5)}
   ]]>
  </style>
  <linearGradient id="id0" gradientUnits="userSpaceOnUse" x1="3.12" y1="15.86" x2="7.14" y2="15.86">
   <stop offset="0" style="stop-opacity:1; stop-color:#0141FF"/>
   <stop offset="1" style="stop-opacity:1; stop-color:#5B84FF"/>
  </linearGradient>
  <linearGradient id="id1" gradientUnits="userSpaceOnUse" x1="6.77" y1="9.39" x2="10.63" y2="8.67">
   <stop offset="0" style="stop-opacity:1; stop-color:#870000"/>
   <stop offset="1" style="stop-opacity:1; stop-color:#DB0000"/>
  </linearGradient>
  <linearGradient id="id2" gradientUnits="userSpaceOnUse" x1="0.34" y1="11.99" x2="9.93" y2="11.99">
   <stop offset="0" style="stop-opacity:1; stop-color:#5C85FF"/>
   <stop offset="1" style="stop-opacity:1; stop-color:#0040FF"/>
  </linearGradient>
  <linearGradient id="id3" gradientUnits="userSpaceOnUse" x1="-0.3" y1="11.94" x2="6.88" y2="2.55">
   <stop offset="0" style="stop-opacity:1; stop-color:#910000"/>
   <stop offset="1" style="stop-opacity:1; stop-color:#FF3030"/>
  </linearGradient>
  <linearGradient id="id4" gradientUnits="userSpaceOnUse" x1="4.19" y1="6.23" x2="8.09" y2="6.23">
   <stop offset="0" style="stop-opacity:1; stop-color:#870000"/>
   <stop offset="1" style="stop-opacity:1; stop-color:#D40000"/>
  </linearGradient>
  <linearGradient id="id5" gradientUnits="userSpaceOnUse" x1="2.61" y1="9.77" x2="-0.37" y2="9.13">
   <stop offset="0" style="stop-opacity:1; stop-color:#4A0000"/>
   <stop offset="1" style="stop-opacity:1; stop-color:#CC0000"/>
  </linearGradient>
 </defs>
 <g id="Capa_x0020_1">
  <metadata id="CorelCorpID_0Corel-Layer"/>
  <g id="_2265939223488">
   <path class="fil0" d="M2.01 13.99c-0.74,-1.68 -0.95,-3.09 -0.9,-4.5 -0.27,0.53 -0.42,1.11 -0.42,1.73 0,1.13 0.52,2.09 1.32,2.77zm-0.87 -4.98c0.1,-1.42 0.45,-2.86 0.77,-4.6 -1.73,2.94 -2.15,5.26 -1.8,6.99 0.13,-0.9 0.5,-1.71 1.03,-2.39z"/>
   <path class="fil1" d="M1.91 4.41c-0.32,1.74 -0.67,3.18 -0.77,4.6 0.74,-0.95 1.81,-1.63 3.05,-1.86 -1.32,0.29 -2.48,1.17 -3.08,2.34 -0.05,1.41 0.16,2.82 0.9,4.5 0.06,0.06 0.12,0.11 0.19,0.15 -0.15,-1.92 0.84,-4.4 3,-5.91 0.72,-3.11 -2.82,-4.65 0.28,-8.23 -3.56,1.58 -1.46,5.07 -3.05,6.21 -0.12,0.08 -0.35,-0.28 -0.52,-1.8z"/>
   <path class="fil2" d="M5.48 0c-3.1,3.58 0.44,5.12 -0.28,8.23 -0.13,3.72 1.23,5.7 2.52,2.93 0.63,-0.95 0.35,-2.05 -0.03,-3.31 -0.44,-0.31 -0.94,-0.53 -1.46,-0.67 0.51,0.11 0.98,0.3 1.42,0.55 -0.33,-1.08 -0.73,-2.27 -0.68,-3.58 -0.13,0.39 -0.47,0.71 -0.83,0.68 -0.44,-0.04 -1.26,-3.36 -0.66,-4.83z"/>
   <path class="fil3" d="M6.97 4.15c-0.05,1.31 0.35,2.5 0.68,3.58 1.4,0.8 2.38,2.25 2.53,3.94 0.55,-1.76 0.19,-3.71 -0.91,-4.73 0.46,1.45 0.13,1.45 -0.3,0.85 -0.63,-0.87 -1.04,-3.33 -1.96,-4.11 0.03,0.16 0.01,0.32 -0.04,0.47zm0.72 3.7c0.38,1.26 0.66,2.36 0.03,3.31 0.38,1.13 0.54,2.07 0.52,2.83 0.79,-0.68 1.29,-1.64 1.29,-2.77 0,-1.39 -0.75,-2.61 -1.84,-3.37z"/>
   <path class="fil4" d="M7.83 15.96c1.27,-0.87 2.1,-2.32 2.1,-3.97 0,-0.03 0,-0.05 0,-0.08 -0.36,1.25 -1.19,2.3 -2.29,2.95 0.12,0.31 0.19,0.64 0.19,1 0,0.03 0,0.06 0,0.1zm-5.21 -1.11c-1.1,-0.64 -1.93,-1.69 -2.28,-2.94 0,0.03 0,0.05 0,0.08 0,1.65 0.83,3.1 2.09,3.96 0,-0.03 0,-0.06 0,-0.09 0,-0.36 0.07,-0.7 0.19,-1.01z"/>
   <polygon class="fil5" points="4.52,14.8 4.93,15.03 4.93,14.61 4.49,14.35 4.47,14.11 4.69,14.01 4.93,14.15 4.93,13.67 5.13,13.53 5.33,13.67 5.33,14.15 5.57,14.01 5.79,14.11 5.77,14.36 5.33,14.61 5.33,15.03 5.74,14.8 5.75,15.27 6.11,15.06 6.11,14.55 6.31,14.41 6.51,14.55 6.51,14.83 6.92,14.59 7.14,14.7 7.12,14.94 6.71,15.18 6.95,15.32 6.97,15.56 6.75,15.66 6.31,15.41 5.95,15.62 6.35,15.86 5.95,16.1 6.31,16.31 6.75,16.05 6.97,16.16 6.95,16.4 6.71,16.54 7.12,16.77 7.14,17.02 6.92,17.12 6.51,16.88 6.51,17.16 6.31,17.3 6.11,17.16 6.11,16.65 5.75,16.44 5.74,16.91 5.33,16.69 5.33,17.1 5.77,17.36 5.79,17.6 5.57,17.7 5.33,17.56 5.33,18.04 5.13,18.18 4.93,18.04 4.93,17.57 4.69,17.7 4.47,17.6 4.49,17.36 4.93,17.1 4.93,16.69 4.52,16.91 4.51,16.45 4.15,16.65 4.15,17.16 3.95,17.3 3.75,17.16 3.75,16.88 3.34,17.12 3.12,17.02 3.14,16.78 3.55,16.54 3.31,16.4 3.29,16.16 3.51,16.05 3.95,16.31 4.31,16.1 3.91,15.86 4.31,15.62 3.95,15.41 3.51,15.66 3.29,15.56 3.31,15.32 3.55,15.18 3.14,14.94 3.12,14.7 3.34,14.59 3.75,14.83 3.75,14.55 3.95,14.41 4.15,14.55 4.15,15.06 4.51,15.27 "/>
  </g>
 </g>
</svg>
