<?xml version="1.0" encoding="UTF-8"?>
<!DOCTYPE svg PUBLIC "-//W3C//DTD SVG 1.1//EN" "http://www.w3.org/Graphics/SVG/1.1/DTD/svg11.dtd">
<!-- Creator: CorelDRAW 2020 (64-Bit Versión de evaluación) -->
<svg xmlns="http://www.w3.org/2000/svg" xml:space="preserve" width="50px" height="50px" version="1.1" style="shape-rendering:geometricPrecision; text-rendering:geometricPrecision; image-rendering:optimizeQuality; fill-rule:evenodd; clip-rule:evenodd"
viewBox="0 0 34.24 34.24"
 xmlns:xlink="http://www.w3.org/1999/xlink"
 xmlns:xodm="http://www.corel.com/coreldraw/odm/2003">
 <defs>
  <style type="text/css">
   <![CDATA[
    .fil0 {fill:white}
    .fil6 {fill:url(#id0)}
    .fil3 {fill:url(#id1)}
    .fil5 {fill:url(#id2)}
    .fil2 {fill:url(#id3)}
    .fil4 {fill:url(#id4)}
    .fil1 {fill:url(#id5)}
   ]]>
  </style>
  <linearGradient id="id0" gradientUnits="userSpaceOnUse" x1="13.58" y1="29.32" x2="20.66" y2="29.32">
   <stop offset="0" style="stop-opacity:1; stop-color:#003FFE"/>
   <stop offset="1" style="stop-opacity:1; stop-color:#090057"/>
  </linearGradient>
  <linearGradient id="id1" gradientUnits="userSpaceOnUse" x1="15.45" y1="12.29" x2="22.36" y2="12.29">
   <stop offset="0" style="stop-opacity:1; stop-color:#870000"/>
   <stop offset="1" style="stop-opacity:1; stop-color:#D40000"/>
  </linearGradient>
  <linearGradient id="id2" gradientUnits="userSpaceOnUse" x1="8.64" y1="22.48" x2="25.6" y2="22.48">
   <stop offset="0" style="stop-opacity:1; stop-color:#090057"/>
   <stop offset="1" style="stop-opacity:1; stop-color:#0040FF"/>
  </linearGradient>
  <linearGradient id="id3" gradientUnits="userSpaceOnUse" x1="7.52" y1="22.38" x2="20.21" y2="5.78">
   <stop offset="0" style="stop-opacity:1; stop-color:#910000"/>
   <stop offset="1" style="stop-opacity:1; stop-color:#FF3030"/>
  </linearGradient>
  <linearGradient id="id4" gradientUnits="userSpaceOnUse" x1="20.01" y1="17.88" x2="26.85" y2="16.6">
   <stop offset="0" style="stop-opacity:1; stop-color:#870000"/>
   <stop offset="1" style="stop-opacity:1; stop-color:#DB0000"/>
  </linearGradient>
  <linearGradient id="id5" gradientUnits="userSpaceOnUse" x1="12.66" y1="18.54" x2="7.39" y2="17.41">
   <stop offset="0" style="stop-opacity:1; stop-color:#4A0000"/>
   <stop offset="1" style="stop-opacity:1; stop-color:#CC0000"/>
  </linearGradient>
 </defs>
 <g id="Capa_x0020_1">
  <metadata id="CorelCorpID_0Corel-Layer"/>
  <circle class="fil0" cx="17.12" cy="17.12" r="17.12"/>
  <path class="fil1" d="M11.6 26.02c-1.3,-2.98 -1.68,-5.47 -1.59,-7.96 -0.48,0.93 -0.75,1.96 -0.75,3.05 0,2 0.92,3.7 2.34,4.91zm-1.54 -8.81c0.19,-2.51 0.8,-5.07 1.37,-8.15 -3.07,5.21 -3.8,9.31 -3.18,12.37 0.23,-1.58 0.87,-3.03 1.81,-4.22z"/>
  <path class="fil2" d="M11.43 9.06c-0.57,3.08 -1.18,5.64 -1.37,8.15 1.31,-1.69 3.21,-2.89 5.39,-3.3 -2.33,0.53 -4.39,2.08 -5.44,4.15 -0.09,2.49 0.29,4.98 1.59,7.96 0.11,0.09 0.22,0.18 0.33,0.27 -0.27,-3.41 1.5,-7.8 5.31,-10.46 1.28,-5.51 -4.98,-8.22 0.49,-14.56 -6.29,2.8 -2.58,8.97 -5.39,10.98 -0.21,0.15 -0.62,-0.49 -0.91,-3.19z"/>
  <path class="fil3" d="M17.73 1.27c-5.47,6.34 0.79,9.05 -0.49,14.56 -0.24,6.57 2.18,10.08 4.46,5.17 1.11,-1.68 0.62,-3.63 -0.06,-5.85 -0.78,-0.54 -1.65,-0.94 -2.58,-1.18 0.9,0.2 1.74,0.53 2.52,0.97 -0.59,-1.91 -1.29,-4.02 -1.21,-6.33 -0.22,0.68 -0.83,1.26 -1.47,1.21 -0.77,-0.07 -2.22,-5.94 -1.17,-8.55z"/>
  <path class="fil4" d="M20.37 8.61c-0.08,2.31 0.62,4.42 1.21,6.33 2.47,1.42 4.2,3.98 4.47,6.97 0.96,-3.11 0.34,-6.56 -1.61,-8.36 0.81,2.55 0.23,2.56 -0.53,1.5 -1.11,-1.54 -1.84,-5.89 -3.47,-7.27 0.05,0.27 0.02,0.56 -0.07,0.83zm1.27 6.54c0.68,2.22 1.17,4.17 0.06,5.85 0.66,2.01 0.96,3.66 0.93,5.02 1.38,-1.21 2.27,-2.91 2.27,-4.91 0,-2.45 -1.32,-4.61 -3.26,-5.96z"/>
  <path class="fil5" d="M21.9 29.49c2.23,-1.53 3.7,-4.1 3.7,-7.01 0,-0.05 0,-0.1 0,-0.14 -0.63,2.21 -2.1,4.07 -4.04,5.2 0.22,0.55 0.34,1.15 0.34,1.78 0,0.06 0,0.11 0,0.17zm-9.21 -1.95c-1.95,-1.13 -3.42,-2.99 -4.05,-5.2 0,0.04 0,0.09 0,0.14 0,2.91 1.47,5.48 3.71,7.01 0,-0.06 0,-0.11 0,-0.17 0,-0.63 0.12,-1.23 0.34,-1.78z"/>
  <polygon class="fil6" points="16.05,27.47 16.77,27.87 16.77,27.13 15.99,26.68 15.96,26.25 16.35,26.07 16.77,26.31 16.77,25.48 17.12,25.24 17.47,25.48 17.47,26.32 17.9,26.07 18.28,26.25 18.25,26.68 17.47,27.13 17.47,27.87 18.19,27.47 18.21,28.29 18.84,27.93 18.84,27.03 19.2,26.79 19.55,27.03 19.55,27.52 20.28,27.1 20.66,27.28 20.63,27.71 19.9,28.13 20.33,28.37 20.36,28.8 19.98,28.98 19.2,28.53 18.56,28.9 19.26,29.33 18.57,29.75 19.2,30.12 19.98,29.67 20.36,29.85 20.33,30.28 19.91,30.52 20.63,30.94 20.66,31.37 20.28,31.55 19.55,31.13 19.55,31.62 19.2,31.86 18.85,31.62 18.85,30.73 18.21,30.36 18.19,31.18 17.47,30.79 17.47,31.52 18.25,31.97 18.28,32.39 17.9,32.58 17.47,32.33 17.47,33.17 17.12,33.41 16.77,33.17 16.77,32.33 16.35,32.58 15.96,32.39 15.99,31.97 16.77,31.52 16.77,30.79 16.05,31.18 16.03,30.36 15.4,30.73 15.4,31.63 15.04,31.87 14.69,31.63 14.69,31.14 13.97,31.56 13.58,31.37 13.61,30.94 14.34,30.53 13.91,30.28 13.88,29.86 14.27,29.67 15.04,30.12 15.68,29.75 14.98,29.33 15.68,28.9 15.04,28.53 14.27,28.98 13.88,28.8 13.91,28.37 14.34,28.13 13.61,27.71 13.58,27.28 13.97,27.1 14.69,27.52 14.69,27.03 15.04,26.79 15.4,27.03 15.4,27.93 16.03,28.29 "/>
 </g>
</svg>
