<?xml version="1.0" encoding="UTF-8"?>
<!DOCTYPE svg PUBLIC "-//W3C//DTD SVG 1.1//EN" "http://www.w3.org/Graphics/SVG/1.1/DTD/svg11.dtd">
<!-- Creator: CorelDRAW 2020 (64-Bit Versión de evaluación) -->
<svg xmlns="http://www.w3.org/2000/svg" xml:space="preserve" width="13957px" height="13957px" version="1.1" style="shape-rendering:geometricPrecision; text-rendering:geometricPrecision; image-rendering:optimizeQuality; fill-rule:evenodd; clip-rule:evenodd"
viewBox="0 0 21925.8 21925.8"
 xmlns:xlink="http://www.w3.org/1999/xlink"
 xmlns:xodm="http://www.corel.com/coreldraw/odm/2003">
 <defs>
  <style type="text/css">
   <![CDATA[
    .str0 {stroke:white;stroke-width:12.57;stroke-miterlimit:22.9256}
    .fil8 {fill:none}
    .fil0 {fill:white}
    .fil4 {fill:url(#id0)}
    .fil2 {fill:url(#id1)}
    .fil3 {fill:url(#id2)}
    .fil5 {fill:url(#id3)}
    .fil7 {fill:url(#id4)}
    .fil1 {fill:url(#id5)}
    .fil6 {fill:url(#id6)}
   ]]>
  </style>
  <linearGradient id="id0" gradientUnits="userSpaceOnUse" x1="9814.74" y1="7812.09" x2="14205.21" y2="7812.09">
   <stop offset="0" style="stop-opacity:1; stop-color:#870000"/>
   <stop offset="1" style="stop-opacity:1; stop-color:#D40000"/>
  </linearGradient>
  <linearGradient id="id1" gradientUnits="userSpaceOnUse" x1="8039.16" y1="11788.89" x2="4692.69" y2="11071.23">
   <stop offset="0" style="stop-opacity:1; stop-color:#4A0000"/>
   <stop offset="1" style="stop-opacity:1; stop-color:#CC0000"/>
  </linearGradient>
  <linearGradient id="id2" gradientUnits="userSpaceOnUse" x1="4772.01" y1="14229.65" x2="12839.56" y2="3677.33">
   <stop offset="0" style="stop-opacity:1; stop-color:#910000"/>
   <stop offset="1" style="stop-opacity:1; stop-color:#FF3030"/>
  </linearGradient>
  <linearGradient id="id3" gradientUnits="userSpaceOnUse" x1="12714.91" y1="11365.16" x2="17062.12" y2="10551.39">
   <stop offset="0" style="stop-opacity:1; stop-color:#870000"/>
   <stop offset="1" style="stop-opacity:1; stop-color:#DB0000"/>
  </linearGradient>
  <linearGradient id="id4" gradientUnits="userSpaceOnUse" x1="8625.78" y1="18642.06" x2="13128.19" y2="18642.06">
   <stop offset="0" style="stop-opacity:1; stop-color:#003FFE"/>
   <stop offset="1" style="stop-opacity:1; stop-color:#090057"/>
  </linearGradient>
  <linearGradient id="id5" gradientUnits="userSpaceOnUse" x1="5106.94" y1="8953.47" x2="16836.88" y2="8953.47">
   <stop offset="0" style="stop-opacity:1; stop-color:#FF7070"/>
   <stop offset="1" style="stop-opacity:1; stop-color:#D60000"/>
  </linearGradient>
  <linearGradient id="id6" gradientUnits="userSpaceOnUse" x1="5484.58" y1="14288.7" x2="16269.38" y2="14288.7">
   <stop offset="0" style="stop-opacity:1; stop-color:#090057"/>
   <stop offset="1" style="stop-opacity:1; stop-color:#0040FF"/>
  </linearGradient>
 </defs>
 <g id="Capa_x0020_1">
  <metadata id="CorelCorpID_0Corel-Layer"/>
  <circle class="fil0 str0" cx="10962.9" cy="10962.9" r="10956.61"/>
  <g id="_2657889297728">
   <path class="fil1" d="M12005.86 6239.76c-487.14,-40.96 -1407.92,-3773.87 -740.24,-5432.1 -4000.4,1778.11 -1644.21,5704.55 -3431.62,6980.15 -129.32,92.28 -391.73,-310.89 -574.42,-2027 -3571.82,6052.88 -2165.39,9759.33 365.32,11338.5 -349.7,-2205.99 754.93,-5238.87 3328.25,-7035.75 -151.42,4179.92 1386.44,6410.07 2832.18,3288.36 496.42,1492.68 667.71,2683.23 561.92,3615.58 2995.93,-2029.51 3157.58,-6526.78 1182.27,-8352.45 514.77,1620.19 145.27,1626.78 -338.49,953.05 -703.82,-980.15 -1170.14,-3744.26 -2206,-4619.04 119.94,604.4 -406.73,1338.85 -979.17,1290.7z"/>
   <path class="fil2" d="M7624.9 17099.31c-2095.92,-4332.36 -1166.25,-7023.09 -365.32,-11338.5 -3571.82,6052.88 -2165.39,9759.33 365.32,11338.5z"/>
   <path class="fil3" d="M7259.58 5760.81c-800.93,4315.41 -1730.6,7006.14 365.32,11338.5 -349.7,-2205.99 754.93,-5238.87 3328.25,-7035.75 811.1,-3504.22 -3166.82,-5226.23 312.47,-9255.9 -4000.4,1778.11 -1644.21,5704.55 -3431.62,6980.15 -129.32,92.28 -391.73,-310.89 -574.42,-2027z"/>
   <path class="fil4" d="M11265.62 807.66c-3479.29,4029.67 498.63,5751.68 -312.47,9255.9 -151.42,4179.92 1386.44,6410.07 2832.18,3288.36 1337.35,-2012.44 -958.09,-4638.23 -840.81,-7877.34 -142.4,432.93 -528.8,799.65 -938.66,765.18 -487.14,-40.96 -1407.92,-3773.87 -740.24,-5432.1z"/>
   <path class="fil5" d="M12944.52 5474.58c-117.28,3239.11 2178.16,5864.9 840.81,7877.34 496.42,1492.68 667.71,2683.23 561.92,3615.58 2995.93,-2029.51 3157.58,-6526.78 1182.27,-8352.45 514.77,1620.19 145.27,1626.78 -338.49,953.05 -703.82,-980.15 -1170.14,-3744.26 -2206,-4619.04 34.07,171.65 15.97,353.8 -40.51,525.52z"/>
   <path class="fil0" d="M12109.94 8880.45c2555.79,563.53 4468.05,2841.7 4468.05,5566.88 0,3148.59 -2552.43,5701.01 -5701,5701.01 -3148.58,0 -5701,-2552.42 -5701,-5701.01 0,-2785.51 1997.85,-5104.03 4638.72,-5601.78 -2147.72,480.94 -3934.2,2346.29 -3934.2,4574.11 0,2592.72 2419.65,4376.69 5012.37,4376.69 2592.72,0 4927.61,-1783.97 4927.61,-4376.69 0,-2177.55 -1647.07,-4008.57 -3710.55,-4539.21z"/>
   <path class="fil6" d="M10876.99 19681.11c2978.14,0 5392.4,-2414.26 5392.4,-5392.41 0,-29.7 -0.3,-59.33 -0.78,-88.93 -667.3,2349.2 -2828.52,4069.83 -5391.62,4069.83 -2563.1,0 -4724.33,-1720.63 -5391.63,-4069.83 -0.48,29.6 -0.77,59.23 -0.77,88.93 0,2978.15 2414.26,5392.41 5392.4,5392.41z"/>
   <circle class="fil0" cx="10876.99" cy="18642.06" r="3036.84"/>
   <polygon class="fil7" points="10195.66,17465.3 10652.32,17716.33 10652.32,17245.69 10159.1,16960.93 10138.05,16689.85 10383.13,16572.91 10652.32,16728.33 10652.32,16197 10876.56,16043.22 11100.37,16197 11100.37,16730.31 11370.48,16574.36 11615.57,16691.3 11594.51,16962.38 11100.37,17247.67 11100.37,17716.33 11557.04,17465.3 11567.97,17986.3 11971.91,17753.09 11971.91,17182.5 12196.14,17028.72 12419.96,17182.5 12419.96,17494.41 12881.83,17227.74 13126.91,17344.68 13105.84,17615.76 12645.7,17881.44 12914.9,18036.85 12936.17,18307.57 12690.87,18424.87 12197.65,18140.11 11791.99,18374.32 12237.73,18644.29 11794.5,18912.74 12198.94,19146.24 12692.16,18861.48 12937.45,18978.79 12916.18,19249.5 12646.99,19404.92 13107.13,19670.59 13128.19,19941.67 12883.11,20058.61 12421.24,19791.95 12421.24,20103.86 12197.43,20257.63 11973.2,20103.86 11973.2,19533.27 11568.04,19299.35 11557.04,19823.28 11100.58,19572.37 11100.58,20036.46 11594.72,20321.74 11615.78,20592.83 11370.7,20709.77 11100.58,20553.82 11100.58,21087.13 10876.77,21240.91 10652.53,21087.13 10652.53,20555.8 10383.34,20711.22 10138.25,20594.28 10159.32,20323.2 10652.53,20038.44 10652.53,19572.14 10195.66,19823.28 10184.72,19302.28 9780.78,19535.5 9780.78,20106.08 9556.55,20259.86 9332.74,20106.08 9332.74,19794.17 8870.87,20060.84 8625.78,19943.9 8646.85,19672.82 9106.99,19407.15 8837.79,19251.73 8816.52,18981.01 9061.82,18863.71 9555.03,19148.47 9960.7,18914.26 9514.96,18644.29 9960.7,18374.32 9555.03,18140.11 9061.82,18424.87 8816.52,18307.57 8837.79,18036.85 9106.99,17881.44 8646.85,17615.76 8625.78,17344.68 8870.87,17227.74 9332.74,17494.41 9332.74,17182.5 9556.55,17028.72 9780.78,17182.5 9780.78,17753.09 10184.72,17986.3 "/>
  </g>
  <rect class="fil8" x="6.29" y="6.29" width="21913.21" height="21913.21"/>
 </g>
</svg>
