<?xml version="1.0" encoding="UTF-8"?>
<!DOCTYPE svg PUBLIC "-//W3C//DTD SVG 1.1//EN" "http://www.w3.org/Graphics/SVG/1.1/DTD/svg11.dtd">
<!-- Creator: CorelDRAW 2020 (64-Bit Versión de evaluación) -->
<svg xmlns="http://www.w3.org/2000/svg" xml:space="preserve" width="726px" height="817px" version="1.1" style="shape-rendering:geometricPrecision; text-rendering:geometricPrecision; image-rendering:optimizeQuality; fill-rule:evenodd; clip-rule:evenodd"
viewBox="0 0 30.26 34.05"
 xmlns:xlink="http://www.w3.org/1999/xlink"
 xmlns:xodm="http://www.corel.com/coreldraw/odm/2003">
 <defs>
  <style type="text/css">
   <![CDATA[
    .fil0 {fill:white}
    .fil2 {fill:url(#id0)}
    .fil1 {fill:url(#id1)}
   ]]>
  </style>
  <linearGradient id="id0" gradientUnits="userSpaceOnUse" x1="9.15" y1="26" x2="21.1" y2="26">
   <stop offset="0" style="stop-opacity:1; stop-color:#003FFE"/>
   <stop offset="1" style="stop-opacity:1; stop-color:#090057"/>
  </linearGradient>
  <linearGradient id="id1" gradientUnits="userSpaceOnUse" x1="0.82" y1="14.44" x2="29.44" y2="14.44">
   <stop offset="0" style="stop-opacity:1; stop-color:#090057"/>
   <stop offset="1" style="stop-opacity:1; stop-color:#0040FF"/>
  </linearGradient>
 </defs>
 <g id="Capa_x0020_1">
  <metadata id="CorelCorpID_0Corel-Layer"/>
  <path class="fil0" d="M18.4 0.09c6.78,1.5 11.86,7.54 11.86,14.77 0,8.36 -6.78,15.13 -15.13,15.13 -8.36,0 -15.13,-6.77 -15.13,-15.13 0,-7.39 5.3,-13.54 12.31,-14.86 -5.7,1.28 -10.44,6.23 -10.44,12.14 0,6.88 6.42,11.61 13.3,11.61 6.88,0 13.08,-4.73 13.08,-11.61 0,-5.78 -4.37,-10.64 -9.85,-12.05z"/>
  <path class="fil1" d="M15.13 28.75c7.9,0 14.31,-6.4 14.31,-14.31 0,-0.08 0,-0.15 -0.01,-0.23 -1.77,6.23 -7.5,10.8 -14.3,10.8 -6.8,0 -12.54,-4.57 -14.31,-10.8 0,0.08 0,0.15 0,0.23 0,7.91 6.41,14.31 14.31,14.31z"/>
  <circle class="fil0" cx="15.13" cy="26" r="8.06"/>
  <polygon class="fil2" points="13.32,22.87 14.53,23.54 14.53,22.29 13.22,21.53 13.17,20.82 13.82,20.5 14.53,20.92 14.53,19.51 15.13,19.1 15.72,19.51 15.72,20.92 16.44,20.51 17.09,20.82 17.03,21.54 15.72,22.3 15.72,23.54 16.93,22.87 16.96,24.26 18.03,23.64 18.03,22.12 18.63,21.71 19.22,22.12 19.22,22.95 20.45,22.24 21.1,22.55 21.04,23.27 19.82,23.98 20.54,24.39 20.59,25.11 19.94,25.42 18.63,24.66 17.56,25.29 18.74,26 17.56,26.71 18.64,27.33 19.94,26.58 20.6,26.89 20.54,27.61 19.82,28.02 21.05,28.72 21.1,29.44 20.45,29.75 19.23,29.05 19.23,29.87 18.63,30.28 18.04,29.87 18.04,28.36 16.96,27.74 16.93,29.13 15.72,28.46 15.72,29.7 17.03,30.45 17.09,31.17 16.44,31.48 15.72,31.07 15.72,32.48 15.13,32.89 14.53,32.48 14.53,31.07 13.82,31.49 13.17,31.18 13.22,30.46 14.53,29.7 14.53,28.46 13.32,29.13 13.29,27.75 12.22,28.37 12.22,29.88 11.62,30.29 11.03,29.88 11.03,29.05 9.8,29.76 9.15,29.45 9.21,28.73 10.43,28.03 9.72,27.61 9.66,26.89 10.31,26.58 11.62,27.34 12.7,26.72 11.51,26 12.7,25.29 11.62,24.66 10.31,25.42 9.66,25.11 9.72,24.39 10.43,23.98 9.21,23.27 9.15,22.55 9.8,22.24 11.03,22.95 11.03,22.12 11.62,21.71 12.22,22.12 12.22,23.64 13.29,24.26 "/>
 </g>
</svg>
